:SAMPLES-PER-SECOND 30
:FULLY-SPECIFIED
:DEGREES
234
root  5.310999878 36.7633339 0.5942133468 -161.0759888 -79.66649628 147.6779785
lowerback  12.00269985 4.512290001 1.96044004
upperback  5.686779976 5.975309849 2.753930092
thorax  -0.8459799886 2.874330044 1.015100002
lowerneck  -2.463320017 2.671350002 -1.03876996
upperneck  31.71809959 -0.4683449864 10.04049969
head  10.53800011 0.2339809984 3.695290089
lclavicle  0 -9.442270133e-015 7.951389973e-016
lhumerus  22.70630074 -8.492819786 85.59660339
lradius  1.669613543e-031 -3.111468247e-031 118.2180023
lwrist  -7.062250077e-031 3.531125038e-031 50.56119919
lhand  -1.496451383e-031 -27.76390076 20.11240005
lfingers  90 7.125020027 -90
lthumb  89.89689403 5.08795885 91.16245106
rclavicle  0 -9.442270133e-015 7.951389973e-016
rhumerus  38.03179932 25.73559952 -88.10019684
rradius  -6.556723744e-032 3.469717247e-031 100.7009964
rwrist  3.531125038e-031 7.062250077e-031 -74.32389832
rhand  -7.920061211e-032 -33.2840004 9.303460121
rfingers  -90 -7.125020027 -90
rthumb  -92.93752616 -24.25625642 -97.11982154
rfemur  -10.99440002 10.77600002 -8.334670067
rtibia  -0 0 57.4530983
rfoot  -4.637648731e-032 -17.87000084 2.505880117
rtoes  5.373923086 19.29304026 -105.8922705
lfemur  -16.07130051 -3.677249908 -5.854100227
ltibia  -0 0 60.81549835
lfoot  4.489383018e-032 -10.52110004 1.093539953
ltoes  -4.250644065 -19.5611806 -102.515957
235
root  5.44791109 36.95355513 0.6703377709 -162.4099731 -79.58399963 149.2009888
lowerback  12.3149004 4.398079872 2.857980013
upperback  5.807209969 5.908720016 2.756910086
thorax  -0.7936450243 2.848860025 0.5165600181
lowerneck  -1.339769959 2.538089991 -1.066020012
upperneck  32.33499908 -1.027459979 10.62209988
head  10.59930038 -0.02739039995 3.872469902
lclavicle  0 -9.442270133e-015 7.951389973e-016
lhumerus  24.5685997 -7.970789909 85.14289856
lradius  1.648123184e-031 -3.122904739e-031 117.822998
lwrist  -7.062250077e-031 5.296687558e-031 52.25540161
lhand  -1.496451383e-031 -27.76390076 20.11240005
lfingers  90 7.125020027 -90
lthumb  89.89689403 5.08795885 91.16245106
rclavicle  0 -9.442270133e-015 7.951389973e-016
rhumerus  39.5060997 25.57329941 -89.05860138
rradius  -6.261573333e-032 3.475164893e-031 100.2139969
rwrist  3.531125038e-031 3.531125038e-031 -75.27880096
rhand  -7.920061211e-032 -33.2840004 9.303460121
rfingers  -90 -7.125020027 -90
rthumb  -92.93752616 -24.25625642 -97.11982154
rfemur  -11.2191 10.68570042 -8.491239548
rtibia  -0 0 56.48799896
rfoot  -4.599397832e-032 -16.32749939 3.920150042
rtoes  5.373923086 19.29304026 -105.8922705
lfemur  -16.94680023 -3.827219963 -5.476130009
ltibia  -0 0 61.08250046
lfoot  4.738179287e-032 -8.196760178 -0.02492590062
ltoes  -4.250644065 -19.5611806 -102.515957
236
root  5.591222057 37.14200117 0.7426489057 -163.2369995 -79.39360046 150.177002
lowerback  12.45660019 4.489860058 2.516309977
upperback  6.128260136 5.965459824 3.657160044
thorax  -0.6648010015 2.846210003 1.629649997
lowerneck  -0.194434002 2.36522007 -2.008290052
upperneck  32.8445015 -1.361189961 10.74209976
head  10.58909988 -0.3305410147 4.064080238
lclavicle  0 -9.442270133e-015 7.951389973e-016
lhumerus  26.30220032 -7.10036993 85.9890976
lradius  1.638031324e-031 -3.128209938e-031 117.6380005
lwrist  -7.062250077e-031 8.827812596e-031 53.42990112
lhand  -1.496451383e-031 -27.76390076 20.11240005
lfingers  90 7.125020027 -90
lthumb  89.89689403 5.08795885 91.16245106
rclavicle  0 -9.442270133e-015 7.951389973e-016
rhumerus  41.18569946 25.9640007 -88.61530304
rradius  -6.004904886e-032 3.479691827e-031 99.79109955
rwrist  3.531125038e-031 1.059337512e-030 -76.1128006
rhand  -7.920061211e-032 -33.2840004 9.303460121
rfingers  -90 -7.125020027 -90
rthumb  -92.93752616 -24.25625642 -97.11982154
rfemur  -11.42430019 10.64630032 -8.773360252
rtibia  -0 0 55.44660187
rfoot  -4.565538261e-032 -14.80799961 4.796480179
rtoes  5.373923086 19.29304026 -105.8922705
lfemur  -17.73310089 -3.926749945 -5.18599987
ltibia  -0 0 61.22159958
lfoot  4.437345859e-032 -5.891719818 -1.446020007
ltoes  -4.250644065 -19.5611806 -102.515957
237
root  5.731266502 37.31822217 0.8074733216 -163.2789917 -79.09470367 150.3599854
lowerback  12.6317997 4.266439915 3.059890032
upperback  6.532649994 5.679709911 3.688829899
thorax  -0.2780739963 2.702719927 1.407819986
lowerneck  0.8481619954 2.556960106 -2.489749908
upperneck  33.17689896 -1.33773005 11.26119995
head  10.50940037 -0.3794110119 4.346250057
lclavicle  0 -9.442270133e-015 7.951389973e-016
lhumerus  28.43790054 -5.926889896 85.42179871
lradius  1.628414303e-031 -3.133226914e-031 117.461998
lwrist  -7.062250077e-031 3.531125038e-031 54.20259857
lhand  -1.496451383e-031 -27.76390076 20.11240005
lfingers  90 7.125020027 -90
lthumb  89.89689403 5.08795885 91.16245106
rclavicle  0 -9.442270133e-015 7.951389973e-016
rhumerus  43.12170029 26.45980072 -89.21469879
rradius  -5.779041114e-032 3.483514156e-031 99.41940308
rwrist  0 7.062250077e-031 -76.77200317
rhand  -7.920061211e-032 -33.2840004 9.303460121
rfingers  -90 -7.125020027 -90
rthumb  -92.93752616 -24.25625642 -97.11982154
rfemur  -11.64309978 10.70790005 -9.206310272
rtibia  -0 0 54.37789917
rfoot  -4.540164779e-032 -13.54389954 4.983139992
rtoes  5.373923086 19.29304026 -105.8922705
lfemur  -18.46389961 -3.852149963 -5.062880039
ltibia  -0 0 61.26210022
lfoot  4.422633161e-032 -3.599960089 -2.836050034
ltoes  -4.250644065 -19.5611806 -102.515957
238
root  5.866644326 37.47333316 0.8715867058 -163.1110229 -78.84729767 150.3569946
lowerback  12.64840031 4.215139866 2.406860113
upperback  6.974170208 5.481609821 4.618020058
thorax  0.02479569986 2.554519892 2.775640011
lowerneck  1.814290047 2.718169928 -3.506239891
upperneck  33.65330124 -1.15158999 11.20479965
head  10.48069954 -0.4637410045 4.531599998
lclavicle  0 -9.442270133e-015 7.951389973e-016
lhumerus  30.41650009 -4.145349979 85.7641983
lradius  1.625515218e-031 -3.134731936e-031 117.4089966
lwrist  -1.059337512e-030 8.827812596e-031 54.96720123
lhand  -1.496451383e-031 -27.76390076 20.11240005
lfingers  90 7.125020027 -90
lthumb  89.89689403 5.08795885 91.16245106
rclavicle  0 -9.442270133e-015 7.951389973e-016
rhumerus  44.95140076 27.53809929 -88.46679688
rradius  -5.551652527e-032 3.487210286e-031 99.04560089
rwrist  3.531125038e-031 1.059337512e-030 -77.5766983
rhand  -7.920061211e-032 -33.2840004 9.303460121
rfingers  -90 -7.125020027 -90
rthumb  -92.93752616 -24.25625642 -97.11982154
rfemur  -11.78409958 10.91329956 -9.605870247
rtibia  -0 0 53.34619904
rfoot  -4.525877317e-032 -12.77140045 4.738049984
rtoes  5.373923086 19.29304026 -105.8922705
lfemur  -19.20240021 -3.717350006 -4.997680187
ltibia  -0 0 61.22940063
lfoot  8.830734085e-032 -1.473850012 -3.909080029
ltoes  -4.250644065 -19.5611806 -102.515957
